<svg width="114" height="19" xmlns="http://www.w3.org/2000/svg" xmlns:xlink="http://www.w3.org/1999/xlink"><defs><path d="M.64 1.008h5.064c.64 0 1.288.068 1.944.204a5.286 5.286 0 011.764.696c.52.328.944.772 1.272 1.332.328.56.492 1.264.492 2.112 0 .896-.272 1.676-.816 2.34-.544.664-1.272 1.1-2.184 1.308v.048c1.104.128 2.02.556 2.748 1.284.728.728 1.092 1.716 1.092 2.964 0 .704-.148 1.348-.444 1.932a4.239 4.239 0 01-1.26 1.488c-.544.408-1.208.724-1.992.948-.784.224-1.664.336-2.64.336H.64V1.008zm1.728 7.44h3.48c.416 0 .836-.048 1.26-.144a3.5 3.5 0 001.164-.492c.352-.232.636-.54.852-.924.216-.384.324-.856.324-1.416 0-.544-.108-1.004-.324-1.38a2.689 2.689 0 00-.876-.924c-.368-.24-.8-.412-1.296-.516a7.709 7.709 0 00-1.584-.156h-3v5.952zm0 8.064h3.216c.624 0 1.22-.06 1.788-.18a4.584 4.584 0 001.488-.576 3.069 3.069 0 001.02-1.032c.256-.424.384-.932.384-1.524 0-1.12-.38-1.956-1.14-2.508-.76-.552-1.836-.828-3.228-.828H2.368v6.648zM15.784 18h-1.896l7.344-16.992h1.68L30.208 18h-1.92l-1.872-4.464h-8.784L15.784 18zm2.496-6.048h7.488l-3.744-9.024-3.744 9.024zm26.472 3.528h.048V1.008h1.728V18h-2.16L34.48 3.384h-.048V18h-1.728V1.008h2.16l9.888 14.472zM51.04 1.008h5.64c1.056 0 2.116.176 3.18.528a8.771 8.771 0 012.88 1.596c.856.712 1.548 1.6 2.076 2.664s.792 2.3.792 3.708c0 1.424-.264 2.664-.792 3.72a8.125 8.125 0 01-2.076 2.652 8.771 8.771 0 01-2.88 1.596 10.075 10.075 0 01-3.18.528h-5.64V1.008zm1.728 15.456H56.2c1.28 0 2.396-.2 3.348-.6.952-.4 1.74-.924 2.364-1.572a6.42 6.42 0 001.404-2.22 7.257 7.257 0 00.468-2.568c0-.88-.156-1.736-.468-2.568a6.42 6.42 0 00-1.404-2.22c-.624-.648-1.412-1.172-2.364-1.572-.952-.4-2.068-.6-3.348-.6h-3.432v13.92zM77.44 3.744a4.15 4.15 0 00-1.416-1.236c-.576-.312-1.272-.468-2.088-.468-.416 0-.84.064-1.272.192a3.69 3.69 0 00-1.176.588 3.022 3.022 0 00-.852.996c-.216.4-.324.872-.324 1.416 0 .544.104.992.312 1.344.208.352.484.652.828.9s.736.452 1.176.612c.44.16.9.32 1.38.48.592.192 1.188.4 1.788.624.6.224 1.14.516 1.62.876.48.36.872.816 1.176 1.368.304.552.456 1.252.456 2.1 0 .848-.164 1.58-.492 2.196a4.648 4.648 0 01-1.272 1.524c-.52.4-1.112.696-1.776.888a7.182 7.182 0 01-2.004.288 7.698 7.698 0 01-1.536-.156c-.512-.104-1-.26-1.464-.468a5.988 5.988 0 01-1.296-.792c-.4-.32-.752-.688-1.056-1.104l1.488-1.104c.368.608.884 1.116 1.548 1.524.664.408 1.444.612 2.34.612a4.53 4.53 0 001.32-.204 3.712 3.712 0 001.212-.624c.36-.28.656-.624.888-1.032.232-.408.348-.884.348-1.428 0-.592-.116-1.084-.348-1.476a3.098 3.098 0 00-.924-.984 5.656 5.656 0 00-1.32-.66 58.73 58.73 0 00-1.56-.528 20.455 20.455 0 01-1.656-.6 5.601 5.601 0 01-1.464-.876A4.091 4.091 0 0168.98 7.2c-.264-.528-.396-1.176-.396-1.944 0-.816.164-1.52.492-2.112A4.45 4.45 0 0170.36 1.68a5.377 5.377 0 011.752-.84 7.128 7.128 0 011.896-.264c1.152 0 2.136.204 2.952.612.816.408 1.432.892 1.848 1.452L77.44 3.744zM84.472 18h-1.728V1.008h1.728V18zm9.96 0h-1.728V2.544h-5.688V1.008h13.104v1.536h-5.688V18zm9.96-1.536h9.096V18h-10.824V1.008H113.2v1.536h-8.808V8.4h8.232v1.512h-8.232v6.552z" id="a"/></defs><g fill="none" fill-rule="evenodd"><use fill="#000" xlink:href="#a"/><use fill="#FFF" xlink:href="#a"/></g></svg>